<?xml version="1.0" encoding="UTF-8" standalone="no"?>
<svg
   xmlns:dc="http://purl.org/dc/elements/1.1/"
   xmlns:cc="http://creativecommons.org/ns#"
   xmlns:rdf="http://www.w3.org/1999/02/22-rdf-syntax-ns#"
   xmlns:svg="http://www.w3.org/2000/svg"
   xmlns="http://www.w3.org/2000/svg"
   xmlns:sodipodi="http://sodipodi.sourceforge.net/DTD/sodipodi-0.dtd"
   xmlns:inkscape="http://www.inkscape.org/namespaces/inkscape"
   width="50"
   height="50"
   fill="none"
   version="1.1"
   id="svg27"
   sodipodi:docname="2.svg"
   inkscape:version="1.0.1 (3bc2e813f5, 2020-09-07)">
  <metadata
     id="metadata31">
    <rdf:RDF>
      <cc:Work
         rdf:about="">
        <dc:format>image/svg+xml</dc:format>
        <dc:type
           rdf:resource="http://purl.org/dc/dcmitype/StillImage" />
        <dc:title></dc:title>
      </cc:Work>
    </rdf:RDF>
  </metadata>
  <sodipodi:namedview
     pagecolor="#ffffff"
     bordercolor="#666666"
     borderopacity="1"
     objecttolerance="10"
     gridtolerance="10"
     guidetolerance="10"
     inkscape:pageopacity="0"
     inkscape:pageshadow="2"
     inkscape:window-width="1920"
     inkscape:window-height="986"
     id="namedview29"
     showgrid="false"
     inkscape:zoom="15.686275"
     inkscape:cx="26"
     inkscape:cy="22.63125"
     inkscape:window-x="-11"
     inkscape:window-y="-11"
     inkscape:window-maximized="1"
     inkscape:current-layer="svg27" />
  <g
     filter="url(#g176__filter0_d)"
     fill="#000161"
     id="g8"
     transform="translate(-0.765,1.275)">
    <path
       d="m 40.609,37.972 c 0.598,0 1.083,0.46 1.083,1.028 0,0.568 -0.485,1.029 -1.083,1.029 -0.598,0 -1.083,-0.46 -1.083,-1.029 0,-0.568 0.485,-1.028 1.083,-1.028 z m 0,-1.543 c -1.496,0 -2.709,1.151 -2.709,2.571 0,1.42 1.213,2.572 2.709,2.572 1.496,0 2.709,-1.152 2.709,-2.572 0,-1.42 -1.213,-2.571 -2.709,-2.571 z m -8.666,1.543 c 0.598,0 1.083,0.46 1.083,1.028 0,0.568 -0.485,1.029 -1.083,1.029 -0.598,0 -1.084,-0.46 -1.084,-1.029 0,-0.568 0.486,-1.028 1.084,-1.028 z m 0,-1.543 c -1.496,0 -2.709,1.151 -2.709,2.571 0,1.42 1.213,2.572 2.709,2.572 1.496,0 2.709,-1.152 2.709,-2.572 0,-1.42 -1.213,-2.571 -2.709,-2.571 z"
       id="path2" />
    <path
       d="M 33.477,27.686 28.06,22.543 H 25.74 L 22.89,12.298 A 2.038,2.038 0 0 0 22.35,11.434 9.483,9.483 0 0 0 18.617,9.172 7.942,7.942 0 0 0 15.691,8.657 9.15,9.15 0 0 0 12.766,9.12 9.118,9.118 0 0 0 9.028,11.383 c -0.241,0.269 -0.425,0.58 -0.541,0.915 L 5.48,23.124 c -0.227,0.824 0.292,1.666 1.16,1.882 0.133,0.035 0.272,0.052 0.41,0.052 0.748,0.012 1.407,-0.462 1.599,-1.147 l 2.709,-9.823 v 3.147 L 7.979,29.23 h 3.38 v 12.343 h 3.25 V 29.229 h 2.167 v 12.343 h 3.25 V 29.229 h 2.796 l -2.796,-9.92 v -5.22 l 2.709,9.822 c 0.194,0.695 0.868,1.17 1.625,1.147 0.139,0 0.277,-0.017 0.412,-0.052 0.27,-0.075 0.514,-0.215 0.71,-0.406 h 1.679 l 3.25,3.086 h -4.426 v 5.143 c 0,1.42 1.213,2.571 2.709,2.571 h 15.168 c 1.496,0 2.709,-1.151 2.709,-2.571 v -5.143 z"
       id="path4" />
    <path
       d="m 36.818,26.657 h 9.751 c 0,-4.4 -3.757,-7.966 -8.39,-7.966 a 8.5,8.5 0 0 0 -1.36,0.113 v 7.853 z M 19.485,4.029 c 0,1.988 -1.698,3.6 -3.793,3.6 -2.094,0 -3.792,-1.612 -3.792,-3.6 0,-1.989 1.698,-3.6 3.792,-3.6 2.095,0 3.793,1.611 3.793,3.6 z"
       id="path6" />
  </g>
  <defs
     id="defs25">
    <filter
       id="g176__filter0_d"
       x="0.82800001"
       y="0.42899999"
       width="50.342999"
       height="50.342999"
       filterUnits="userSpaceOnUse"
       color-interpolation-filters="sRGB">
      <feFlood
         flood-opacity="0"
         result="BackgroundImageFix"
         id="feFlood10" />
      <feColorMatrix
         in="SourceAlpha"
         values="0 0 0 0 0 0 0 0 0 0 0 0 0 0 0 0 0 0 127 0"
         id="feColorMatrix12" />
      <feOffset
         dy="4.6"
         id="feOffset14" />
      <feGaussianBlur
         stdDeviation="2.3"
         id="feGaussianBlur16" />
      <feColorMatrix
         values="0 0 0 0 0 0 0 0 0 0 0 0 0 0 0 0 0 0 0.25 0"
         id="feColorMatrix18" />
      <feBlend
         in2="BackgroundImageFix"
         result="effect1_dropShadow"
         id="feBlend20"
         mode="normal" />
      <feBlend
         in="SourceGraphic"
         in2="effect1_dropShadow"
         result="shape"
         id="feBlend22"
         mode="normal" />
    </filter>
  </defs>
</svg>
