<?xml version="1.0" encoding="UTF-8" standalone="no"?>
<svg
   xmlns:dc="http://purl.org/dc/elements/1.1/"
   xmlns:cc="http://creativecommons.org/ns#"
   xmlns:rdf="http://www.w3.org/1999/02/22-rdf-syntax-ns#"
   xmlns:svg="http://www.w3.org/2000/svg"
   xmlns="http://www.w3.org/2000/svg"
   xmlns:sodipodi="http://sodipodi.sourceforge.net/DTD/sodipodi-0.dtd"
   xmlns:inkscape="http://www.inkscape.org/namespaces/inkscape"
   width="50"
   height="50"
   fill="none"
   version="1.1"
   id="svg23"
   sodipodi:docname="3.svg"
   inkscape:version="1.0.1 (3bc2e813f5, 2020-09-07)">
  <metadata
     id="metadata27">
    <rdf:RDF>
      <cc:Work
         rdf:about="">
        <dc:format>image/svg+xml</dc:format>
        <dc:type
           rdf:resource="http://purl.org/dc/dcmitype/StillImage" />
        <dc:title></dc:title>
      </cc:Work>
    </rdf:RDF>
  </metadata>
  <sodipodi:namedview
     pagecolor="#ffffff"
     bordercolor="#666666"
     borderopacity="1"
     objecttolerance="10"
     gridtolerance="10"
     guidetolerance="10"
     inkscape:pageopacity="0"
     inkscape:pageshadow="2"
     inkscape:window-width="1920"
     inkscape:window-height="986"
     id="namedview25"
     showgrid="false"
     inkscape:zoom="15.686275"
     inkscape:cx="26"
     inkscape:cy="22.78"
     inkscape:window-x="-11"
     inkscape:window-y="-11"
     inkscape:window-maximized="1"
     inkscape:current-layer="svg23" />
  <g
     filter="url(#layer1__filter0_d)"
     fill="#000161"
     id="g4"
     transform="translate(-0.57375,2.35875)">
    <path
       d="m 42.07,25.387 c 0,2.21 -1.968,4.001 -4.396,4.001 -2.428,0 -4.397,-1.791 -4.397,-4.001 0,-2.21 1.969,-4.001 4.397,-4.001 2.428,0 4.396,1.791 4.396,4.001 z m -23.445,0 c 0,2.21 -1.969,4.001 -4.397,4.001 -2.428,0 -4.396,-1.791 -4.396,-4.001 0,-2.21 1.968,-4.001 4.396,-4.001 2.428,0 4.397,1.791 4.397,4.001 z m 26.965,7.467 a 11.625,11.625 0 0 0 -4.301,-1.866 15.497,15.497 0 0 0 -3.617,-0.515 12.712,12.712 0 0 0 -3.61,0.515 13.07,13.07 0 0 0 -3.312,1.295 l -0.203,0.211 a 13.25,13.25 0 0 1 4.52,2.057 c 1.054,0.705 1.669,1.83 1.65,3.02 v 0.915 h 9.748 v -4.027 c 0.02,-0.634 -0.309,-1.235 -0.876,-1.605 z M 15.2,37.57 c 0,-1.158 0.586,-2.252 1.588,-2.967 l 0.062,-0.052 0.073,-0.046 a 16.404,16.404 0 0 1 4.448,-2.006 6.152,6.152 0 0 1 -0.322,-0.334 12.845,12.845 0 0 0 -3.21,-1.177 15.486,15.486 0 0 0 -3.611,-0.515 12.722,12.722 0 0 0 -3.617,0.515 14.237,14.237 0 0 0 -4.3,1.866 C 5.763,33.238 5.438,33.829 5.43,34.459 v 4.027 h 9.77 z m 1.954,4.001 v -4 c 0.003,-0.63 0.33,-1.222 0.882,-1.6 a 13.982,13.982 0 0 1 4.3,-1.867 12.543,12.543 0 0 1 3.61,-0.514 c 1.226,0.026 2.442,0.199 3.617,0.514 1.567,0.328 3.035,0.965 4.3,1.867 0.57,0.366 0.9,0.966 0.882,1.6 v 4 H 17.155 Z M 30.345,28.498 c 0,2.21 -1.968,4.002 -4.396,4.002 -2.428,0 -4.396,-1.792 -4.396,-4.002 0,-2.21 1.968,-4 4.396,-4 2.428,0 4.396,1.79 4.396,4 z M 44.31,0.429 H 7.721 c -1.248,0 -2.26,0.92 -2.26,2.057 V 13.8 c 0,1.136 1.012,2.057 2.26,2.057 h 8.335 v 3.086 l 3.56,-3.086 h 3.843 l 2.204,3.086 2.034,-3.086 h 4.012 l 3.56,3.086 v -3.086 h 9.041 c 1.248,0 2.26,-0.92 2.26,-2.057 V 2.486 C 46.57,1.35 45.559,0.429 44.31,0.429 Z M 11.112,5.057 H 37.529 V 6.086 H 11.112 Z m 20.766,6.172 H 11.112 V 10.2 H 31.878 Z M 40.92,8.657 H 11.112 V 7.63 H 40.92 v 1.028 z"
       id="path2" />
  </g>
  <defs
     id="defs21">
    <filter
       id="layer1__filter0_d"
       x="0.82999998"
       y="0.42899999"
       width="50.341"
       height="50.342999"
       filterUnits="userSpaceOnUse"
       color-interpolation-filters="sRGB">
      <feFlood
         flood-opacity="0"
         result="BackgroundImageFix"
         id="feFlood6" />
      <feColorMatrix
         in="SourceAlpha"
         values="0 0 0 0 0 0 0 0 0 0 0 0 0 0 0 0 0 0 127 0"
         id="feColorMatrix8" />
      <feOffset
         dy="4.6"
         id="feOffset10" />
      <feGaussianBlur
         stdDeviation="2.3"
         id="feGaussianBlur12" />
      <feColorMatrix
         values="0 0 0 0 0 0 0 0 0 0 0 0 0 0 0 0 0 0 0.25 0"
         id="feColorMatrix14" />
      <feBlend
         in2="BackgroundImageFix"
         result="effect1_dropShadow"
         id="feBlend16"
         mode="normal" />
      <feBlend
         in="SourceGraphic"
         in2="effect1_dropShadow"
         result="shape"
         id="feBlend18"
         mode="normal" />
    </filter>
  </defs>
</svg>
