<?xml version="1.0" encoding="UTF-8" standalone="no"?>
<svg
   xmlns:dc="http://purl.org/dc/elements/1.1/"
   xmlns:cc="http://creativecommons.org/ns#"
   xmlns:rdf="http://www.w3.org/1999/02/22-rdf-syntax-ns#"
   xmlns:svg="http://www.w3.org/2000/svg"
   xmlns="http://www.w3.org/2000/svg"
   xmlns:sodipodi="http://sodipodi.sourceforge.net/DTD/sodipodi-0.dtd"
   xmlns:inkscape="http://www.inkscape.org/namespaces/inkscape"
   width="50"
   height="50"
   fill="none"
   version="1.1"
   id="svg23"
   sodipodi:docname="5.svg"
   inkscape:version="1.0.1 (3bc2e813f5, 2020-09-07)">
  <metadata
     id="metadata27">
    <rdf:RDF>
      <cc:Work
         rdf:about="">
        <dc:format>image/svg+xml</dc:format>
        <dc:type
           rdf:resource="http://purl.org/dc/dcmitype/StillImage" />
        <dc:title></dc:title>
      </cc:Work>
    </rdf:RDF>
  </metadata>
  <sodipodi:namedview
     pagecolor="#ffffff"
     bordercolor="#666666"
     borderopacity="1"
     objecttolerance="10"
     gridtolerance="10"
     guidetolerance="10"
     inkscape:pageopacity="0"
     inkscape:pageshadow="2"
     inkscape:window-width="1920"
     inkscape:window-height="986"
     id="namedview25"
     showgrid="false"
     inkscape:zoom="20"
     inkscape:cx="26"
     inkscape:cy="19.766667"
     inkscape:window-x="-11"
     inkscape:window-y="-11"
     inkscape:window-maximized="1"
     inkscape:current-layer="svg23" />
  <g
     filter="url(#g144__filter0_d)"
     fill="#000161"
     id="g4"
     transform="translate(-1,6.95)">
    <path
       d="m 18.653,5.247 c 0,2.818 -1.974,5.103 -4.409,5.103 -2.434,0 -4.408,-2.285 -4.408,-5.103 0,-2.82 1.974,-5.104 4.408,-5.104 2.435,0 4.409,2.285 4.409,5.104 z m 23.509,0 c 0,2.818 -1.973,5.103 -4.408,5.103 -2.435,0 -4.408,-2.285 -4.408,-5.103 0,-2.82 1.973,-5.104 4.408,-5.104 2.435,0 4.408,2.285 4.408,5.104 z m -7.343,24.61 v -5.104 c 0,-0.793 -0.294,-1.587 -0.882,-2.04 -1.175,-1.135 -2.743,-1.929 -4.31,-2.383 -1.078,-0.34 -2.351,-0.68 -3.625,-0.68 a 10.26,10.26 0 0 0 -3.624,0.68 c -1.568,0.454 -3.037,1.361 -4.31,2.382 -0.589,0.567 -0.883,1.248 -0.883,2.041 v 5.104 H 34.82 Z M 30.41,13.185 c 0,2.819 -1.973,5.104 -4.408,5.104 -2.435,0 -4.408,-2.285 -4.408,-5.104 0,-2.818 1.973,-5.103 4.408,-5.103 2.435,0 4.408,2.285 4.408,5.103 z m 15.278,1.588 c -1.176,-1.134 -2.743,-1.928 -4.31,-2.381 -1.078,-0.34 -2.352,-0.68 -3.625,-0.68 a 10.25,10.25 0 0 0 -3.625,0.68 c -0.588,0.226 -1.175,0.453 -1.763,0.793 v 0.114 c 0,1.928 -0.686,3.742 -1.763,4.99 1.86,0.68 3.33,1.588 4.506,2.608 0.294,0.34 0.588,0.568 0.784,1.021 h 10.677 v -5.103 c 0,-0.794 -0.293,-1.588 -0.881,-2.042 z M 16.89,20.898 c 1.37,-1.135 2.938,-2.042 4.506,-2.609 -1.078,-1.36 -1.764,-3.062 -1.764,-4.99 v -0.227 c -0.588,-0.227 -1.175,-0.567 -1.763,-0.68 -1.078,-0.34 -2.351,-0.68 -3.625,-0.68 -1.175,0 -2.449,0.226 -3.624,0.68 -1.568,0.567 -3.037,1.36 -4.31,2.381 -0.588,0.454 -0.882,1.248 -0.882,2.042 v 5.103 h 10.58 c 0.294,-0.453 0.49,-0.68 0.881,-1.02 z"
       id="path2" />
  </g>
  <defs
     id="defs21">
    <filter
       id="g144__filter0_d"
       x="0.82800001"
       y="0.14300001"
       width="50.341999"
       height="38.914001"
       filterUnits="userSpaceOnUse"
       color-interpolation-filters="sRGB">
      <feFlood
         flood-opacity="0"
         result="BackgroundImageFix"
         id="feFlood6" />
      <feColorMatrix
         in="SourceAlpha"
         values="0 0 0 0 0 0 0 0 0 0 0 0 0 0 0 0 0 0 127 0"
         id="feColorMatrix8" />
      <feOffset
         dy="4.6"
         id="feOffset10" />
      <feGaussianBlur
         stdDeviation="2.3"
         id="feGaussianBlur12" />
      <feColorMatrix
         values="0 0 0 0 0 0 0 0 0 0 0 0 0 0 0 0 0 0 0.25 0"
         id="feColorMatrix14" />
      <feBlend
         in2="BackgroundImageFix"
         result="effect1_dropShadow"
         id="feBlend16"
         mode="normal" />
      <feBlend
         in="SourceGraphic"
         in2="effect1_dropShadow"
         result="shape"
         id="feBlend18"
         mode="normal" />
    </filter>
  </defs>
</svg>
