<svg width="44" height="39" fill="none" xmlns="http://www.w3.org/2000/svg">
  <path fill-rule="evenodd" clip-rule="evenodd" d="M4.307 10.255c0-1.684.758-3.299 2.109-4.49 1.35-1.19 3.182-1.859 5.093-1.859h21.605c1.91 0 3.742.669 5.093 1.86 1.35 1.19 2.11 2.805 2.11 4.49v19.046c0 1.684-.76 3.299-2.11 4.49-1.35 1.19-3.183 1.86-5.093 1.86H11.51c-1.91 0-3.742-.67-5.093-1.86-1.35-1.191-2.11-2.806-2.11-4.49V10.255zm7.202-3.174c-.956 0-1.871.334-2.547.93-.675.595-1.054 1.402-1.054 2.244v19.047c0 .842.379 1.65 1.054 2.245.676.595 1.591.93 2.547.93H22.31V21.366h-1.8a1.93 1.93 0 01-1.273-.465 1.498 1.498 0 01-.527-1.122c0-.421.19-.825.527-1.123a1.93 1.93 0 011.273-.465h1.8v-2.38c0-1.474.664-2.887 1.846-3.929 1.182-1.042 2.785-1.627 4.456-1.627h1.08c.478 0 .936.167 1.273.465.338.298.528.701.528 1.122 0 .421-.19.825-.527 1.123a1.93 1.93 0 01-1.274.465h-1.08a3.02 3.02 0 00-1.033.18c-.328.12-.626.296-.877.517a2.38 2.38 0 00-.585.772 2.139 2.139 0 00-.206.912v2.38h3.781c.478 0 .936.168 1.273.465a1.5 1.5 0 01.528 1.123c0 .42-.19.824-.527 1.122a1.93 1.93 0 01-1.274.465h-3.78v11.11h7.201c.955 0 1.871-.334 2.547-.929.675-.595 1.054-1.403 1.054-2.245V10.255c0-.842-.38-1.65-1.054-2.245-.676-.595-1.592-.93-2.547-.93H11.51z" fill="#000161"/>
</svg>
