<?xml version="1.0" encoding="UTF-8" standalone="no"?>
<svg
   xmlns:dc="http://purl.org/dc/elements/1.1/"
   xmlns:cc="http://creativecommons.org/ns#"
   xmlns:rdf="http://www.w3.org/1999/02/22-rdf-syntax-ns#"
   xmlns:svg="http://www.w3.org/2000/svg"
   xmlns="http://www.w3.org/2000/svg"
   xmlns:sodipodi="http://sodipodi.sourceforge.net/DTD/sodipodi-0.dtd"
   xmlns:inkscape="http://www.inkscape.org/namespaces/inkscape"
   width="46"
   height="35"
   viewBox="0 0 12.170834 9.2604168"
   version="1.1"
   id="svg74"
   inkscape:version="1.0.1 (3bc2e813f5, 2020-09-07)"
   sodipodi:docname="gb.svg">
  <defs
     id="defs68">
    <mask
       id="a"
       maskUnits="userSpaceOnUse"
       x="16"
       y="24"
       width="48"
       height="36">
      <rect
         x="16.121"
         y="24"
         width="46.896"
         height="35.563"
         rx="1.2029999"
         fill="#ffffff"
         id="rect4" />
    </mask>
  </defs>
  <sodipodi:namedview
     id="base"
     pagecolor="#ffffff"
     bordercolor="#666666"
     borderopacity="1.0"
     inkscape:pageopacity="0.0"
     inkscape:pageshadow="2"
     inkscape:zoom="2.8"
     inkscape:cx="122.29722"
     inkscape:cy="124.09798"
     inkscape:document-units="mm"
     inkscape:current-layer="layer1"
     inkscape:document-rotation="0"
     showgrid="false"
     units="px"
     inkscape:window-width="1920"
     inkscape:window-height="1020"
     inkscape:window-x="0"
     inkscape:window-y="0"
     inkscape:window-maximized="0" />
  <metadata
     id="metadata71">
    <rdf:RDF>
      <cc:Work
         rdf:about="">
        <dc:format>image/svg+xml</dc:format>
        <dc:type
           rdf:resource="http://purl.org/dc/dcmitype/StillImage" />
        <dc:title></dc:title>
      </cc:Work>
    </rdf:RDF>
  </metadata>
  <g
     inkscape:label="Warstwa 1"
     inkscape:groupmode="layer"
     id="layer1">
    <g
       mask="url(#a)"
       id="g15"
       transform="matrix(0.25249351,0,0,0.24066953,-3.8488031,-5.4346417)">
      <path
         fill="#0a17a7"
         d="M 16.121,24 H 63.017 V 59.563 H 16.121 Z"
         id="path7" />
      <path
         fill-rule="evenodd"
         clip-rule="evenodd"
         d="M 27.3,47.71 11.476,59.04 13.973,62.971 33.987,48.64 V 61.934 H 45.152 V 48.64 L 65.166,62.972 67.663,59.042 51.84,47.708 H 63.017 V 35.855 H 51.84 L 67.663,24.523 65.166,20.593 45.152,34.924 V 21.63 H 33.987 V 34.925 L 13.974,20.592 11.477,24.523 27.3,35.855 H 16.122 v 11.854 h 11.177 z"
         fill="#ffffff"
         id="path9" />
      <path
         d="M 47.387,35.26 68.599,20.444 M 49.64,48.357 68.656,61.965 M 29.53,35.221 9.694,21.03 M 31.681,48.192 9.694,63.672"
         stroke="#db1f35"
         stroke-width="0.401"
         stroke-linecap="round"
         id="path11" />
      <path
         fill-rule="evenodd"
         clip-rule="evenodd"
         d="M 16.121,45.338 H 36.22 v 14.225 h 6.7 V 45.338 H 63.018 V 38.225 H 42.919 V 24 h -6.7 V 38.225 H 16.121 Z"
         fill="#e6273e"
         id="path13" />
    </g>
  </g>
</svg>
