<svg width="44" height="39" fill="none" xmlns="http://www.w3.org/2000/svg">
  <path fill-rule="evenodd" clip-rule="evenodd" d="M3.615 10.397c0-1.709.759-3.348 2.11-4.556 1.35-1.209 3.182-1.888 5.092-1.888h21.606c1.91 0 3.742.68 5.093 1.888 1.35 1.208 2.109 2.847 2.109 4.556V29.73c0 1.709-.759 3.348-2.11 4.556-1.35 1.209-3.182 1.888-5.092 1.888H10.817c-1.91 0-3.742-.68-5.092-1.888-1.351-1.208-2.11-2.847-2.11-4.556V10.397zm7.202-3.222c-.955 0-1.87.34-2.546.944-.675.604-1.055 1.424-1.055 2.278V29.73c0 .854.38 1.674 1.055 2.278.675.604 1.591.944 2.546.944h21.606c.955 0 1.87-.34 2.546-.944.675-.604 1.055-1.424 1.055-2.278V10.397c0-.854-.38-1.674-1.055-2.278-.675-.604-1.591-.944-2.546-.944H10.817zM21.62 15.23c-1.433 0-2.806.51-3.82 1.416-1.012.906-1.581 2.135-1.581 3.417s.569 2.51 1.582 3.417c1.013.907 2.387 1.416 3.819 1.416 1.433 0 2.806-.51 3.82-1.416 1.012-.906 1.581-2.135 1.581-3.417s-.569-2.511-1.582-3.417c-1.012-.907-2.386-1.416-3.819-1.416zm-9.002 4.833c0-2.136.948-4.185 2.636-5.696 1.689-1.51 3.979-2.359 6.366-2.359 2.388 0 4.677.849 6.366 2.36 1.688 1.51 2.636 3.559 2.636 5.695s-.948 4.185-2.636 5.696c-1.689 1.51-3.978 2.359-6.366 2.359-2.387 0-4.677-.849-6.366-2.36-1.688-1.51-2.636-3.559-2.636-5.695zm18.905-6.444a2.87 2.87 0 001.91-.708c.506-.453.79-1.067.79-1.708s-.284-1.256-.79-1.709a2.87 2.87 0 00-1.91-.708 2.87 2.87 0 00-1.91.708c-.506.453-.791 1.068-.791 1.709 0 .64.285 1.255.791 1.708a2.87 2.87 0 001.91.708z" fill="#000161"/>
</svg>
