<?xml version="1.0" encoding="UTF-8" standalone="no"?>
<svg
   xmlns:dc="http://purl.org/dc/elements/1.1/"
   xmlns:cc="http://creativecommons.org/ns#"
   xmlns:rdf="http://www.w3.org/1999/02/22-rdf-syntax-ns#"
   xmlns:svg="http://www.w3.org/2000/svg"
   xmlns="http://www.w3.org/2000/svg"
   xmlns:sodipodi="http://sodipodi.sourceforge.net/DTD/sodipodi-0.dtd"
   xmlns:inkscape="http://www.inkscape.org/namespaces/inkscape"
   width="50.799999cm"
   height="50.799999cm"
   viewBox="0 0 508 508"
   version="1.1"
   id="svg8"
   sodipodi:docname="nyny.svg"
   inkscape:version="1.0.1 (3bc2e813f5, 2020-09-07)">
  <defs
     id="defs2">
    <inkscape:path-effect
       effect="bspline"
       id="path-effect2" />
    <inkscape:path-effect
       effect="bspline"
       id="path-effect2045"
       is_visible="true"
       lpeversion="1"
       weight="33.333333"
       steps="2"
       helper_size="0"
       apply_no_weight="true"
       apply_with_weight="true"
       only_selected="false" />
    <inkscape:path-effect
       effect="bspline"
       id="path-effect2041"
       is_visible="true"
       lpeversion="1"
       weight="33.333333"
       steps="2"
       helper_size="0"
       apply_no_weight="true"
       apply_with_weight="true"
       only_selected="false" />
    <inkscape:path-effect
       effect="bspline"
       id="path-effect42"
       is_visible="true"
       lpeversion="1"
       weight="33.333333"
       steps="2"
       helper_size="0"
       apply_no_weight="true"
       apply_with_weight="true"
       only_selected="false" />
    <inkscape:path-effect
       effect="bspline"
       id="path-effect38"
       is_visible="true"
       lpeversion="1"
       weight="33.333333"
       steps="2"
       helper_size="0"
       apply_no_weight="true"
       apply_with_weight="true"
       only_selected="false" />
    <inkscape:path-effect
       effect="spiro"
       id="path-effect34"
       is_visible="true"
       lpeversion="1" />
    <inkscape:path-effect
       effect="spiro"
       id="path-effect30"
       is_visible="true"
       lpeversion="1" />
    <inkscape:path-effect
       effect="spiro"
       id="path-effect26"
       is_visible="true"
       lpeversion="1" />
    <clipPath
       clipPathUnits="userSpaceOnUse"
       id="clipEmfPath1">
      <path
         d="M 0,0 H 461.24598 V 57.19937 H 0 Z"
         id="path44" />
    </clipPath>
    <pattern
       id="EMFhbasepattern"
       patternUnits="userSpaceOnUse"
       width="6"
       height="6"
       x="0"
       y="0" />
  </defs>
  <sodipodi:namedview
     id="base"
     pagecolor="#ffffff"
     bordercolor="#666666"
     borderopacity="1.0"
     inkscape:pageopacity="0"
     inkscape:pageshadow="2"
     inkscape:zoom="0.175"
     inkscape:cx="559.47837"
     inkscape:cy="1294.2379"
     inkscape:document-units="mm"
     inkscape:current-layer="layer1"
     inkscape:document-rotation="0"
     showgrid="false"
     units="cm"
     height="200in"
     inkscape:pagecheckerboard="true"
     inkscape:window-width="1898"
     inkscape:window-height="1020"
     inkscape:window-x="0"
     inkscape:window-y="0"
     inkscape:window-maximized="0" />
  <metadata
     id="metadata5">
    <rdf:RDF>
      <cc:Work
         rdf:about="">
        <dc:format>image/svg+xml</dc:format>
        <dc:type
           rdf:resource="http://purl.org/dc/dcmitype/StillImage" />
        <dc:title />
      </cc:Work>
    </rdf:RDF>
  </metadata>
  <g
     inkscape:label="Warstwa 1"
     inkscape:groupmode="layer"
     id="layer1">
    <g
       id="g44"
       transform="translate(1.5119048,-4.5357143)">
      <path
         id="path62"
         style="fill:#0708f5;fill-opacity:1;fill-rule:evenodd;stroke-width:2.38938"
         d="M 289.21794,8.9412514 A 288.74309,249.47446 0 0 0 0.79373767,255.43183 288.74309,249.47446 0 0 0 284.30106,507.84934 288.74309,249.47446 0 0 0 506.24108,423.26249 282.45138,217.33512 0 0 1 450.73159,427.01763 282.45138,217.33512 0 0 1 171.42865,207.85206 282.45138,217.33512 0 0 1 335.99025,12.193642 288.74309,249.47446 0 0 0 298.25668,9.0552349 l -7.04904,-0.1095637 a 288.74309,249.47446 0 0 0 -1.9897,-0.00445 z" />
      <ellipse
         style="fill:#f8e30c;fill-opacity:1;fill-rule:evenodd;stroke-width:1.96733"
         id="path66"
         cx="222.597"
         cy="303.77979"
         rx="70.441872"
         ry="56.766647" />
      <ellipse
         style="fill:#00eb75;fill-opacity:1;fill-rule:evenodd;stroke-width:1.60903"
         id="path68"
         cx="-510.53851"
         cy="268.98254"
         rx="124.06566"
         ry="71.770523"
         transform="matrix(-0.9634541,-0.26787346,-0.4517282,0.89215561,0,0)"
         inkscape:transform-center-x="33.839704"
         inkscape:transform-center-y="-4.5593262" />
      <g
         aria-label="z"
         transform="matrix(1.9289055,-0.48422314,0.68402046,1.5993773,-242.44121,-125.25855)"
         id="text114"
         style="font-style:normal;font-variant:normal;font-weight:normal;font-stretch:normal;font-size:82.5019px;line-height:1.25;font-family:Bellota;-inkscape-font-specification:Bellota;fill:#0709f4;fill-opacity:1;stroke:none;stroke-width:1.10493"
         inkscape:transform-center-x="11.699129"
         inkscape:transform-center-y="5.9082893e-05">
        <path
           id="path47"
           style="font-style:normal;font-variant:normal;font-weight:normal;font-stretch:normal;font-size:82.5019px;font-family:Bellota;-inkscape-font-specification:Bellota;fill:#0709f4;fill-opacity:1;stroke-width:1.10493"
           d="m 199.87767,234.35279 v -1.07253 h -28.95816 v 4.2901 h 21.20299 l -24.33807,35.72333 3.54759,2.72256 3.46508,-5.03262 8.16768,2.64006 c 3.38258,1.15503 7.09517,1.81505 10.23024,1.81505 3.96009,0 6.60015,-1.07253 9.98273,-3.54759 l -2.06255,-3.63008 c -3.63008,2.47506 -5.52763,2.88757 -8.08518,2.88757 -2.80507,0 -6.02264,-0.49501 -9.07521,-1.65004 l -6.60015,-2.31005 z" />
      </g>
      <g
         id="g41"
         transform="matrix(1.9980559,0,0,1.7097951,-242.44121,-125.25855)">
        <g
           aria-label="z"
           transform="matrix(0.90743594,-0.30129281,0.32179114,0.99516296,0,0)"
           id="text114-0"
           style="font-style:normal;font-variant:normal;font-weight:normal;font-stretch:normal;font-size:66.7084px;line-height:1.25;font-family:Bellota;-inkscape-font-specification:Bellota;fill:#00eb75;fill-opacity:1;stroke:none;stroke-width:0.893414"
           inkscape:transform-center-x="4.450108"
           inkscape:transform-center-y="6.8216506e-06">
          <path
             id="path50"
             style="font-style:normal;font-variant:normal;font-weight:normal;font-stretch:normal;font-size:66.7084px;font-family:Bellota;-inkscape-font-specification:Bellota;fill:#00eb75;fill-opacity:1;stroke-width:0.893414"
             d="m 257.50697,214.73917 v -0.86721 h -23.41464 v 3.46884 h 17.14405 l -19.67897,28.88473 2.86846,2.20138 2.80175,-4.06921 6.60413,2.13467 c 2.73505,0.93391 5.73692,1.46758 8.27184,1.46758 3.20201,0 5.33668,-0.86721 8.07172,-2.86846 l -1.66771,-2.93517 c -2.93517,2.00125 -4.46946,2.3348 -6.53742,2.3348 -2.26809,0 -4.86972,-0.40025 -7.33793,-1.33417 l -5.33667,-1.86784 z" />
        </g>
      </g>
      <g
         id="g45"
         transform="matrix(1.9980559,0,0,1.7097951,-242.44121,-125.25855)">
        <g
           aria-label="z"
           transform="matrix(0.97130459,-0.28148117,0.34443997,0.92972549,0,0)"
           id="text114-6"
           style="font-style:normal;font-variant:normal;font-weight:normal;font-stretch:normal;font-size:65.6015px;line-height:1.25;font-family:Bellota;-inkscape-font-specification:Bellota;fill:#f8e30c;fill-opacity:1;stroke:none;stroke-width:0.878587"
           inkscape:transform-center-x="4.6842863"
           inkscape:transform-center-y="2.9015426e-05">
          <path
             id="path53"
             style="font-style:normal;font-variant:normal;font-weight:normal;font-stretch:normal;font-size:65.6015px;font-family:Bellota;-inkscape-font-specification:Bellota;fill:#f8e30c;fill-opacity:1;stroke-width:0.878587"
             d="m 267.23796,202.73306 v -0.85282 h -23.02613 v 3.41128 h 16.85959 l -19.35244,28.40545 2.82086,2.16485 2.75526,-4.00169 6.49455,2.09925 c 2.68966,0.91842 5.64173,1.44323 8.13459,1.44323 3.14887,0 5.24812,-0.85282 7.93778,-2.82087 l -1.64004,-2.88646 c -2.88646,1.96804 -4.3953,2.29605 -6.42894,2.29605 -2.23046,0 -4.78891,-0.39361 -7.21617,-1.31203 l -5.24812,-1.83684 z" />
        </g>
      </g>
      <path
         id="path156"
         style="fill:#000000;fill-rule:evenodd;stroke-width:1.2652"
         d="m 205.53378,292.34069 a 17.54866,14.19166 0 0 1 0.005,0.36315 17.54866,14.19166 0 0 1 -17.54776,14.19176 17.54866,14.19166 0 0 1 -0.42643,-0.005 13.161495,10.083548 0 0 0 10.09189,3.6111 13.161495,10.083548 0 0 0 13.16159,-10.08408 13.161495,10.083548 0 0 0 -5.28447,-8.07751 z" />
      <path
         id="path156-6"
         style="fill:#000000;fill-rule:evenodd;stroke-width:1.49678"
         d="m 228.82754,333.4837 a 20.306165,16.304297 0 0 1 0.17033,2.10643 20.306165,16.304297 0 0 1 -17.67991,16.16651 15.919001,11.668026 0 0 0 12.53999,4.48053 15.919001,11.668026 0 0 0 15.91946,-11.6683 15.919001,11.668026 0 0 0 -10.94991,-11.08517 z" />
    </g>
  </g>
</svg>
