<?xml version="1.0" encoding="UTF-8" standalone="no"?>
<svg
   xmlns:dc="http://purl.org/dc/elements/1.1/"
   xmlns:cc="http://creativecommons.org/ns#"
   xmlns:rdf="http://www.w3.org/1999/02/22-rdf-syntax-ns#"
   xmlns:svg="http://www.w3.org/2000/svg"
   xmlns="http://www.w3.org/2000/svg"
   xmlns:sodipodi="http://sodipodi.sourceforge.net/DTD/sodipodi-0.dtd"
   xmlns:inkscape="http://www.inkscape.org/namespaces/inkscape"
   width="130"
   height="90"
   viewBox="0 0 34.395833 23.812501"
   version="1.1"
   id="svg52"
   inkscape:version="1.0.1 (3bc2e813f5, 2020-09-07)"
   sodipodi:docname="stars.svg">
  <defs
     id="defs46">
    <filter
       id="baner__filter3_d"
       x="528.00897"
       y="23"
       width="135.991"
       height="98.695"
       filterUnits="userSpaceOnUse"
       color-interpolation-filters="sRGB">
      <feFlood
         flood-opacity="0"
         result="BackgroundImageFix"
         id="feFlood75" />
      <feColorMatrix
         in="SourceAlpha"
         values="0 0 0 0 0 0 0 0 0 0 0 0 0 0 0 0 0 0 127 0"
         id="feColorMatrix77" />
      <feOffset
         dy="4"
         id="feOffset79" />
      <feGaussianBlur
         stdDeviation="2"
         id="feGaussianBlur81" />
      <feColorMatrix
         values="0 0 0 0 0 0 0 0 0 0 0 0 0 0 0 0 0 0 0.25 0"
         id="feColorMatrix83" />
      <feBlend
         in2="BackgroundImageFix"
         result="effect1_dropShadow"
         id="feBlend85"
         mode="normal" />
      <feBlend
         in="SourceGraphic"
         in2="effect1_dropShadow"
         result="shape"
         id="feBlend87"
         mode="normal" />
    </filter>
  </defs>
  <sodipodi:namedview
     id="base"
     pagecolor="#ffffff"
     bordercolor="#666666"
     borderopacity="1.0"
     inkscape:pageopacity="0.0"
     inkscape:pageshadow="2"
     inkscape:zoom="1.4"
     inkscape:cx="239.94501"
     inkscape:cy="230.53525"
     inkscape:document-units="mm"
     inkscape:current-layer="layer1"
     inkscape:document-rotation="0"
     showgrid="false"
     units="px"
     inkscape:window-width="1920"
     inkscape:window-height="986"
     inkscape:window-x="-11"
     inkscape:window-y="-11"
     inkscape:window-maximized="1" />
  <metadata
     id="metadata49">
    <rdf:RDF>
      <cc:Work
         rdf:about="">
        <dc:format>image/svg+xml</dc:format>
        <dc:type
           rdf:resource="http://purl.org/dc/dcmitype/StillImage" />
        <dc:title></dc:title>
      </cc:Work>
    </rdf:RDF>
  </metadata>
  <g
     inkscape:label="Warstwa 1"
     inkscape:groupmode="layer"
     id="layer1">
    <g
       opacity="0.5"
       filter="url(#baner__filter3_d)"
       id="g28"
       transform="matrix(0.24953199,0,0,0.24348805,-131.42977,-5.4260186)">
      <path
         fill-rule="evenodd"
         clip-rule="evenodd"
         d="M 594.631,35.92 590.003,23 585.375,35.92 h -14.978 l 12.117,7.984 -4.628,12.92 12.117,-7.985 12.117,7.985 -4.628,-12.92 12.117,-7.985 h -14.978 z m 45.763,8.893 4.628,12.65 H 660 l -12.117,7.82 4.628,12.65 -12.117,-7.819 -12.117,7.819 4.628,-12.65 -12.117,-7.82 h 14.978 z M 556.243,66.92 551.615,54 546.986,66.92 h -14.977 l 12.117,7.984 -4.628,12.92 12.117,-7.985 12.117,7.985 -4.629,-12.92 12.118,-7.984 z m 59.106,25.871 -4.731,-12.92 -4.731,12.92 h -15.31 l 12.386,7.985 -4.731,12.92 12.386,-7.985 12.386,7.985 -4.731,-12.92 12.387,-7.985 z"
         fill="#ffffff"
         id="path26" />
    </g>
  </g>
</svg>
