<svg width="39" height="41" fill="none" xmlns="http://www.w3.org/2000/svg">
  <path d="M28.673 35.373h-.044c-6.12-.156-11.96-2.689-16.363-7.096-4.254-4.559-6.699-10.609-6.85-16.949a3.366 3.366 0 01.934-2.37l4.323-4.478a1.554 1.554 0 012.252 0l6.372 6.604c.622.644.622 1.69 0 2.334l-2.542 2.63a12.533 12.533 0 002.539 4.94c1.372 1.242 3 2.143 4.76 2.632l2.548-2.631a1.554 1.554 0 012.253 0l6.371 6.603c.622.645.622 1.69 0 2.335l-4.323 4.478a3.094 3.094 0 01-2.23.968zM11.796 7.983h-.008l-3.186 3.309c.13 5.478 2.24 10.707 5.913 14.65 3.805 3.804 8.849 5.991 14.134 6.127l3.197-3.31-4.129-4.267-2.06 2.133a1.546 1.546 0 01-1.447.447 16.043 16.043 0 01-7.169-3.749 17.075 17.075 0 01-3.617-7.429 1.69 1.69 0 01.435-1.508l2.058-2.135-4.121-4.268z" fill="#000161"/>
</svg>
